<svg width="28" height="22" viewBox="0 0 28 22" fill="none" xmlns="http://www.w3.org/2000/svg">
<path d="M9.44285 18.6181C8.49388 17.7107 7.53217 16.6231 7.53217 15.1999C7.53217 14.2933 7.90123 13.4238 8.55815 12.7828C9.21507 12.1417 10.1061 11.7816 11.0351 11.7816C12.156 11.7816 12.9458 12.0923 13.9011 13.0246C14.8564 12.0923 15.6462 11.7816 16.7671 11.7816C17.6961 11.7816 18.5871 12.1417 19.244 12.7828C19.901 13.4238 20.27 14.2933 20.27 15.1999C20.27 16.6293 19.3147 17.717 18.3593 18.6181C15.8797 21.0379 11.9225 21.0379 9.44285 18.6181Z" fill="#FAB906" stroke="#FAB906" stroke-width="1.5" stroke-linecap="round" stroke-linejoin="round"/>
<path d="M3.1931 7.37321C4.31309 7.06741 5.79101 7.92033 6.29479 9.6774C6.79854 11.4344 5.98884 12.912 4.86886 13.2178C3.74892 13.5234 2.27187 12.6702 1.76811 10.9133C1.26437 9.15644 2.07326 7.67919 3.1931 7.37321Z" fill="#FAB906" stroke="#FAB906" stroke-width="1.5"/>
<path d="M24.8069 7.15708C23.6869 6.85129 22.209 7.70421 21.7052 9.46127C21.2015 11.2183 22.0112 12.6959 23.1311 13.0017C24.2511 13.3072 25.7281 12.4541 26.2319 10.6972C26.7356 8.94031 25.9267 7.46306 24.8069 7.15708Z" fill="#FAB906" stroke="#FAB906" stroke-width="1.5"/>
<path d="M9.38153 1.42094C9.91692 1.33088 10.5327 1.54586 11.1064 2.12358C11.6782 2.69928 12.1502 3.5892 12.3403 4.66376C12.5303 5.73809 12.3912 6.7303 12.0506 7.45965C11.7086 8.19168 11.2023 8.59569 10.6669 8.68603C10.1315 8.77625 9.51492 8.56143 8.94106 7.98355C8.36954 7.40789 7.89749 6.51858 7.70736 5.44434C7.51725 4.36982 7.6562 3.37692 7.99695 2.64748C8.33903 1.91529 8.84605 1.51116 9.38153 1.42094Z" fill="#FAB906" stroke="#FAB906" stroke-width="1.5"/>
<path d="M18.2005 1.2534C17.6643 1.16319 17.0481 1.37742 16.4751 1.95299C15.9041 2.52665 15.4333 3.41364 15.2438 4.48468C15.0543 5.55572 15.1931 6.54541 15.5339 7.27272C15.8759 8.00248 16.3828 8.40589 16.919 8.49637C17.4553 8.58673 18.0713 8.37234 18.6444 7.79678C19.2154 7.22311 19.6872 6.33633 19.8767 5.26526C20.0662 4.19421 19.9264 3.20435 19.5856 2.47706C19.2435 1.7474 18.7367 1.34375 18.2005 1.2534Z" fill="#FAB906" stroke="#FAB906" stroke-width="1.5"/>
</svg>
