<svg width="30" height="30" viewBox="0 0 30 30" fill="none" xmlns="http://www.w3.org/2000/svg">
<path d="M2.5 15H3.75H2.5Z" fill="#F1EAD2"/>
<path d="M2.5 15H3.75" stroke="#FAB906" stroke-width="2" stroke-linecap="round" stroke-linejoin="round"/>
<path d="M7.5 10H5C4.66848 10 4.35054 10.1317 4.11612 10.3661C3.8817 10.6005 3.75 10.9185 3.75 11.25V18.75C3.75 19.0815 3.8817 19.3995 4.11612 19.6339C4.35054 19.8683 4.66848 20 5 20H7.5" fill="#F1EAD2"/>
<path d="M7.5 10H5C4.66848 10 4.35054 10.1317 4.11612 10.3661C3.8817 10.6005 3.75 10.9185 3.75 11.25V18.75C3.75 19.0815 3.8817 19.3995 4.11612 19.6339C4.35054 19.8683 4.66848 20 5 20H7.5" stroke="#FAB906" stroke-width="2" stroke-linecap="round" stroke-linejoin="round"/>
<path d="M7.5 8.75V21.25C7.5 21.5815 7.6317 21.8995 7.86612 22.1339C8.10054 22.3683 8.41848 22.5 8.75 22.5H10C10.3315 22.5 10.6495 22.3683 10.8839 22.1339C11.1183 21.8995 11.25 21.5815 11.25 21.25V8.75C11.25 8.41848 11.1183 8.10054 10.8839 7.86612C10.6495 7.6317 10.3315 7.5 10 7.5H8.75C8.41848 7.5 8.10054 7.6317 7.86612 7.86612C7.6317 8.10054 7.5 8.41848 7.5 8.75Z" fill="#F1EAD2" stroke="#FAB906" stroke-width="2" stroke-linecap="round" stroke-linejoin="round"/>
<path d="M11.25 15H18.75H11.25Z" fill="#F1EAD2"/>
<path d="M11.25 15H18.75" stroke="#FAB906" stroke-width="2" stroke-linecap="round" stroke-linejoin="round"/>
<path d="M18.75 8.75V21.25C18.75 21.5815 18.8817 21.8995 19.1161 22.1339C19.3505 22.3683 19.6685 22.5 20 22.5H21.25C21.5815 22.5 21.8995 22.3683 22.1339 22.1339C22.3683 21.8995 22.5 21.5815 22.5 21.25V8.75C22.5 8.41848 22.3683 8.10054 22.1339 7.86612C21.8995 7.6317 21.5815 7.5 21.25 7.5H20C19.6685 7.5 19.3505 7.6317 19.1161 7.86612C18.8817 8.10054 18.75 8.41848 18.75 8.75Z" fill="#F1EAD2" stroke="#FAB906" stroke-width="2" stroke-linecap="round" stroke-linejoin="round"/>
<path d="M22.5 10H25C25.3315 10 25.6495 10.1317 25.8839 10.3661C26.1183 10.6005 26.25 10.9185 26.25 11.25V18.75C26.25 19.0815 26.1183 19.3995 25.8839 19.6339C25.6495 19.8683 25.3315 20 25 20H22.5" fill="#F1EAD2"/>
<path d="M22.5 10H25C25.3315 10 25.6495 10.1317 25.8839 10.3661C26.1183 10.6005 26.25 10.9185 26.25 11.25V18.75C26.25 19.0815 26.1183 19.3995 25.8839 19.6339C25.6495 19.8683 25.3315 20 25 20H22.5" stroke="#FAB906" stroke-width="2" stroke-linecap="round" stroke-linejoin="round"/>
<path d="M27.5 15H26.25H27.5Z" fill="#F1EAD2"/>
<path d="M27.5 15H26.25" stroke="#FAB906" stroke-width="2" stroke-linecap="round" stroke-linejoin="round"/>
</svg>
