<svg width="30" height="30" viewBox="0 0 30 30" fill="none" xmlns="http://www.w3.org/2000/svg">
<path d="M18.2851 21.1627L15.8765 21.6222C15.8051 21.6356 15.7313 21.629 15.6635 21.6029C15.5957 21.5768 15.5364 21.5324 15.4924 21.4747C15.4483 21.4169 15.4212 21.348 15.414 21.2757C15.4068 21.2034 15.4199 21.1305 15.4517 21.0652L16.5479 18.878L15.3611 16.735C15.3257 16.6712 15.3088 16.5988 15.3125 16.526C15.3162 16.4531 15.3403 16.3828 15.382 16.323C15.4238 16.2632 15.4815 16.2163 15.5486 16.1877C15.6158 16.1592 15.6896 16.1501 15.7616 16.1614L18.1874 16.5284L19.8625 14.7444C19.9125 14.6913 19.9764 14.6532 20.0468 14.6344C20.1173 14.6156 20.1916 14.6169 20.2615 14.638C20.3313 14.6592 20.3938 14.6994 20.442 14.7541C20.4902 14.8089 20.5222 14.876 20.5343 14.9479L20.938 17.3616L23.1597 18.4023C23.2256 18.4331 23.2816 18.4817 23.3214 18.5427C23.3611 18.6037 23.383 18.6746 23.3845 18.7473C23.3861 18.8201 23.3672 18.8918 23.3301 18.9545C23.293 19.0171 23.2392 19.0681 23.1746 19.1016L20.9982 20.226L20.6958 22.6525C20.6868 22.7249 20.6578 22.7933 20.6119 22.85C20.566 22.9067 20.5052 22.9494 20.4362 22.9733C20.3673 22.9971 20.2931 23.0012 20.222 22.9849C20.1509 22.9687 20.0857 22.9329 20.034 22.8815L18.2851 21.1627Z" stroke="#FAB906" stroke-width="2" stroke-linecap="round" stroke-linejoin="round"/>
<path d="M7.18308 17.7999L4.77445 18.2594C4.70303 18.2729 4.6293 18.2662 4.56147 18.2401C4.49364 18.214 4.43438 18.1696 4.39032 18.1119C4.34626 18.0541 4.31913 17.9852 4.31196 17.9129C4.30478 17.8406 4.31785 17.7677 4.34969 17.7024L5.4458 15.5152L4.2591 13.3722C4.2236 13.3084 4.20674 13.236 4.21044 13.1632C4.21413 13.0903 4.23823 13.02 4.27999 12.9602C4.32175 12.9004 4.37948 12.8535 4.4466 12.825C4.51371 12.7964 4.58751 12.7873 4.65956 12.7986L7.08534 13.1656L8.76044 11.3816C8.81046 11.3285 8.8743 11.2904 8.94478 11.2716C9.01527 11.2528 9.0896 11.2541 9.15941 11.2752C9.22922 11.2964 9.29175 11.3366 9.33996 11.3913C9.38817 11.4461 9.42015 11.5132 9.4323 11.5851L9.83593 13.9988L12.0576 15.0395C12.1236 15.0703 12.1796 15.1189 12.2193 15.1799C12.2591 15.2409 12.2809 15.3118 12.2825 15.3845C12.284 15.4573 12.2652 15.5291 12.2281 15.5917C12.191 15.6543 12.1371 15.7053 12.0725 15.7389L9.89613 16.8632L9.59371 19.2897C9.58477 19.3621 9.55571 19.4305 9.50983 19.4872C9.46396 19.5439 9.4031 19.5866 9.33418 19.6105C9.26525 19.6343 9.19102 19.6384 9.11992 19.6222C9.04881 19.6059 8.98368 19.5701 8.93191 19.5187L7.18308 17.7999Z" stroke="#FAB906" stroke-width="2" stroke-linecap="round" stroke-linejoin="round"/>
<path d="M15.6328 9.91066L13.2242 10.3701C13.1527 10.3836 13.079 10.3769 13.0112 10.3508C12.9433 10.3248 12.8841 10.2804 12.84 10.2226C12.796 10.1648 12.7688 10.0959 12.7617 10.0236C12.7545 9.95129 12.7676 9.87841 12.7994 9.81309L13.8955 7.62593L12.7088 5.48289C12.6733 5.41916 12.6564 5.34674 12.6601 5.2739C12.6638 5.20105 12.6879 5.13071 12.7297 5.0709C12.7715 5.01109 12.8292 4.96423 12.8963 4.93567C12.9634 4.9071 13.0372 4.89798 13.1093 4.90935L15.535 5.27632L17.2101 3.49232C17.2602 3.43922 17.324 3.40113 17.3945 3.38234C17.465 3.36355 17.5393 3.3648 17.6091 3.38594C17.6789 3.40709 17.7415 3.4473 17.7897 3.50204C17.8379 3.55679 17.8699 3.62389 17.882 3.69582L18.2856 6.10948L20.5073 7.15022C20.5733 7.18102 20.6293 7.22966 20.669 7.29064C20.7088 7.35162 20.7306 7.4225 20.7322 7.49526C20.7337 7.56803 20.7149 7.63978 20.6778 7.70239C20.6407 7.765 20.5868 7.81599 20.5222 7.84957L18.3458 8.97393L18.0434 11.4005C18.0345 11.4728 18.0054 11.5413 17.9595 11.598C17.9137 11.6547 17.8528 11.6974 17.7839 11.7212C17.715 11.7451 17.6407 11.7491 17.5696 11.7329C17.4985 11.7167 17.4334 11.6808 17.3816 11.6294L15.6328 9.91066Z" stroke="#FAB906" stroke-width="2" stroke-linecap="round" stroke-linejoin="round"/>
</svg>
