<svg width="30" height="30" viewBox="0 0 30 30" fill="none" xmlns="http://www.w3.org/2000/svg">
<path d="M9.50022 11C9.06747 11.0045 8.64786 11.1492 8.30437 11.4125C7.96087 11.6757 7.71204 12.0433 7.59521 12.46L5.10021 21.5C5.02462 21.7926 5.0163 22.0985 5.0759 22.3947C5.13549 22.691 5.26145 22.9699 5.4443 23.2105C5.62715 23.4511 5.86214 23.6471 6.13162 23.7839C6.40111 23.9206 6.69807 23.9945 7.00022 24H23.0002C23.3089 23.9999 23.6133 23.9283 23.8898 23.7909C24.1662 23.6535 24.407 23.454 24.5935 23.208C24.7799 22.962 24.9069 22.6762 24.9644 22.3729C25.022 22.0697 25.0086 21.7572 24.9252 21.46L22.4002 12.5C22.2901 12.0734 22.0422 11.6951 21.695 11.4239C21.3478 11.1526 20.9208 11.0036 20.4802 11H9.50022Z" fill="#FCDE8C"/>
<path d="M15 11C16.6569 11 18 9.65685 18 8C18 6.34315 16.6569 5 15 5C13.3431 5 12 6.34315 12 8C12 9.65685 13.3431 11 15 11Z" stroke="#FAB906" stroke-width="2" stroke-linecap="round" stroke-linejoin="round"/>
<path d="M9.50022 11C9.06747 11.0045 8.64786 11.1492 8.30437 11.4125C7.96087 11.6757 7.71204 12.0433 7.59521 12.46L5.10021 21.5C5.02462 21.7926 5.0163 22.0985 5.0759 22.3947C5.13549 22.691 5.26145 22.9699 5.4443 23.2105C5.62715 23.4511 5.86214 23.6471 6.13162 23.7839C6.40111 23.9206 6.69807 23.9945 7.00022 24H23.0002C23.3089 23.9999 23.6133 23.9283 23.8898 23.7909C24.1662 23.6535 24.407 23.454 24.5935 23.208C24.7799 22.962 24.9069 22.6762 24.9644 22.3729C25.022 22.0697 25.0086 21.7572 24.9252 21.46L22.4002 12.5C22.2901 12.0734 22.0422 11.6951 21.695 11.4239C21.3478 11.1526 20.9208 11.0036 20.4802 11H9.50022Z" stroke="#FAB906" stroke-width="2" stroke-linecap="round" stroke-linejoin="round"/>
</svg>
